<?xml version="1.0" encoding="utf-8"?>
<!-- Generator: Adobe Illustrator 24.2.3, SVG Export Plug-In . SVG Version: 6.00 Build 0)  -->
<svg version="1.1" id="Layer_1" xmlns="http://www.w3.org/2000/svg" xmlns:xlink="http://www.w3.org/1999/xlink" x="0px" y="0px"
	 viewBox="0 0 220 40" style="enable-background:new 0 0 220 40;" xml:space="preserve">
<style type="text/css">
	.st0{fill:#C40540;}
	.st1{fill:#EDE9DA;}
	.st2{fill:#B4D6DE;}
	.st3{fill:#FCFAFA;}
	.st4{fill:#2A496D;}
</style>
<g>
	<ellipse class="st0" cx="100.5" cy="17.5" rx="16.4" ry="15.3"/>
	<polygon class="st0" points="102.5,2.5 117.3,2.8 116,16.6 	"/>
	<polygon class="st0" points="99,32.8 84.2,32.9 85.1,19.1 	"/>
</g>
<g>
	<path class="st1" d="M2.2,8.8h2.3v18.5H2.2V8.8z"/>
	<path class="st1" d="M15.3,27.2l-0.2-1.6H15c-0.7,1-2.1,1.9-3.9,1.9c-2.6,0-3.8-1.8-3.8-3.6c0-3,2.7-4.7,7.6-4.7v-0.3
		c0-1-0.3-2.9-2.9-2.9c-1.2,0-2.4,0.4-3.3,0.9l-0.5-1.5c1-0.7,2.5-1.1,4.1-1.1c3.9,0,4.8,2.6,4.8,5.2v4.7c0,1.1,0,2.2,0.2,3
		L15.3,27.2L15.3,27.2z M14.9,20.8c-2.5,0-5.3,0.4-5.3,2.8c0,1.5,1,2.2,2.2,2.2c1.6,0,2.7-1,3-2.1c0.1-0.2,0.1-0.5,0.1-0.7V20.8z"/>
	<path class="st1" d="M21.5,14.6l1.7,6.4c0.4,1.4,0.7,2.7,0.9,4h0.1c0.3-1.3,0.7-2.6,1.1-4l2-6.4h1.9l2,6.3c0.5,1.5,0.8,2.8,1.1,4.1
		h0.1c0.2-1.3,0.5-2.6,1-4.1l1.8-6.3h2.3l-4.1,12.6h-2.1l-1.9-6c-0.4-1.4-0.8-2.6-1.1-4.1h0c-0.3,1.5-0.7,2.8-1.1,4.2l-2,6H23
		l-3.8-12.6C19.2,14.6,21.5,14.6,21.5,14.6z"/>
	<path class="st1" d="M40.9,14.6l2.8,7.4c0.3,0.8,0.6,1.8,0.8,2.6h0c0.2-0.8,0.5-1.7,0.8-2.6l2.5-7.4h2.4l-3.5,9
		c-1.6,4.3-2.8,6.5-4.3,7.9c-1.1,1-2.2,1.4-2.8,1.5L39.1,31c0.6-0.2,1.3-0.5,2-1.1c0.6-0.5,1.4-1.4,1.9-2.5c0.1-0.2,0.2-0.4,0.2-0.5
		s0-0.3-0.2-0.6l-4.7-11.6L40.9,14.6L40.9,14.6z"/>
	<path class="st1" d="M53.3,21.3c0,3.1,2,4.4,4.3,4.4c1.6,0,2.6-0.3,3.5-0.6l0.4,1.6c-0.8,0.4-2.2,0.8-4.2,0.8
		c-3.9,0-6.2-2.5-6.2-6.3c0-3.8,2.2-6.8,5.9-6.8c4.1,0,5.2,3.6,5.2,5.9c0,0.5,0,0.8-0.1,1.1L53.3,21.3L53.3,21.3z M60,19.7
		c0-1.5-0.6-3.7-3.2-3.7c-2.3,0-3.3,2.1-3.5,3.7H60z"/>
	<path class="st1" d="M65.1,18.6c0-1.5,0-2.8-0.1-3.9h2l0.1,2.5h0.1c0.6-1.7,1.9-2.8,3.5-2.8c0.3,0,0.4,0,0.7,0.1v2.2
		c-0.2,0-0.5-0.1-0.8-0.1c-1.6,0-2.8,1.2-3.1,2.9c-0.1,0.3-0.1,0.7-0.1,1.1v6.7h-2.3C65.1,27.2,65.1,18.6,65.1,18.6z"/>
</g>
<g>
	<path class="st2" d="M142.4,8.3v15.2c0,1.1,0,2.4,0.1,3.2h-2.1l-0.1-2.2h-0.1c-0.7,1.4-2.2,2.5-4.3,2.5c-3,0-5.4-2.6-5.4-6.4
		c0-4.2,2.6-6.8,5.6-6.8c1.9,0,3.2,0.9,3.8,1.9h0.1V8.3H142.4z M140.2,19.3c0-0.3,0-0.7-0.1-1c-0.3-1.5-1.6-2.6-3.3-2.6
		c-2.4,0-3.8,2.1-3.8,4.9c0,2.5,1.2,4.6,3.7,4.6c1.5,0,2.9-1,3.4-2.7c0.1-0.3,0.1-0.6,0.1-1V19.3z"/>
	<path class="st2" d="M146.2,18.1c0-1.5,0-2.8-0.1-3.9h2l0.1,2.5h0.1c0.6-1.7,1.9-2.8,3.5-2.8c0.3,0,0.4,0,0.6,0.1v2.2
		c-0.2,0-0.5-0.1-0.8-0.1c-1.6,0-2.8,1.2-3.1,2.9c-0.1,0.3-0.1,0.7-0.1,1.1v6.7h-2.3L146.2,18.1L146.2,18.1z"/>
	<path class="st2" d="M165.9,20.4c0,4.6-3.2,6.7-6.3,6.7c-3.4,0-6-2.5-6-6.5c0-4.2,2.8-6.7,6.2-6.7
		C163.4,13.9,165.9,16.5,165.9,20.4z M155.9,20.5c0,2.8,1.6,4.8,3.8,4.8c2.2,0,3.8-2,3.8-4.9c0-2.1-1.1-4.8-3.8-4.8
		S155.9,18.1,155.9,20.5z"/>
	<path class="st2" d="M168.8,18.3c0-1.6-0.1-2.9-0.1-4.1h2.1l0.1,2.2h0.1c0.9-1.5,2.4-2.4,4.5-2.4c3,0,5.3,2.6,5.3,6.4
		c0,4.5-2.8,6.8-5.7,6.8c-1.7,0-3.1-0.7-3.9-2H171v6.8h-2.3L168.8,18.3L168.8,18.3z M171,21.6c0,0.3,0.1,0.6,0.1,0.9
		c0.4,1.6,1.8,2.7,3.4,2.7c2.4,0,3.8-2,3.8-4.9c0-2.5-1.3-4.7-3.7-4.7c-1.6,0-3,1.1-3.5,2.8c-0.1,0.3-0.2,0.6-0.2,0.9L171,21.6
		L171,21.6z"/>
	<path class="st2" d="M194.9,20.4c0,4.6-3.2,6.7-6.3,6.7c-3.4,0-6-2.5-6-6.5c0-4.2,2.8-6.7,6.2-6.7
		C192.5,13.9,194.9,16.5,194.9,20.4z M185,20.5c0,2.8,1.6,4.8,3.8,4.8c2.2,0,3.8-2,3.8-4.9c0-2.1-1.1-4.8-3.8-4.8S185,18.1,185,20.5
		z"/>
	<path class="st2" d="M208.4,23.3c0,1.3,0,2.4,0.1,3.4h-2l-0.1-2h-0.1c-0.6,1-1.9,2.3-4.2,2.3c-2,0-4.3-1.1-4.3-5.5v-7.4h2.3v7
		c0,2.4,0.7,4,2.8,4c1.5,0,2.6-1.1,3-2.1c0.1-0.3,0.2-0.8,0.2-1.2v-7.7h2.3L208.4,23.3L208.4,23.3z"/>
	<path class="st2" d="M214.9,10.6v3.6h3.3v1.7h-3.3v6.8c0,1.6,0.4,2.4,1.7,2.4c0.6,0,1-0.1,1.3-0.2l0.1,1.7c-0.4,0.2-1.1,0.3-2,0.3
		c-1.1,0-1.9-0.3-2.5-1c-0.6-0.7-0.9-1.8-0.9-3.3v-6.9h-1.9v-1.7h1.9v-3L214.9,10.6z"/>
</g>
<circle class="st3" cx="102.3" cy="19.3" r="15.2"/>
<polygon class="st3" points="104.1,4.3 117.8,4.6 116.6,18.3 "/>
<polygon class="st3" points="100.9,34.5 87.1,34.6 87.9,20.8 "/>
<circle class="st4" cx="102" cy="19.1" r="7.4"/>
</svg>
