<?xml version="1.0" encoding="utf-8"?>
<!-- Generator: Adobe Illustrator 24.2.3, SVG Export Plug-In . SVG Version: 6.00 Build 0)  -->
<svg version="1.1" id="Layer_1" xmlns="http://www.w3.org/2000/svg" xmlns:xlink="http://www.w3.org/1999/xlink" x="0px" y="0px"
	 viewBox="0 0 195 50" style="enable-background:new 0 0 195 50;" xml:space="preserve">
<style type="text/css">
	.st0{fill:#AFD6F9;}
	.st1{fill:none;stroke:#E0D9D9;stroke-miterlimit:10;}
	.st2{fill:none;stroke:#AFD6F9;stroke-width:2;stroke-miterlimit:10;}
	.st3{fill:#E0D9D9;}
	.st4{font-family:'MyriadPro-Regular';}
	.st5{font-size:9px;}
	.st6{fill:#CB266A;}
	.st7{fill:#AFD6F9;stroke:#0C0C0A;stroke-miterlimit:10;}
</style>
<g>
	<path class="st0" d="M55.05,27.78v-13h1.71v13H55.05z"/>
	<path class="st0" d="M65.3,22.2c0-1.57-0.09-2.48-1.91-2.48c-0.86,0-1.67,0.5-1.69,1.44h-1.8c0.09-1.98,1.64-2.68,3.42-2.68
		c1.85,0,3.69,0.56,3.69,3.08v4.32c0,0.4,0.02,1.15,0.07,1.91h-1.15c-0.16,0-0.47,0.09-0.49-0.13c-0.04-0.41-0.07-0.81-0.09-1.22
		h-0.04c-0.56,1.13-1.57,1.62-2.81,1.62c-1.57,0-3.15-0.81-3.15-2.57c0-2.54,2.25-3.28,4.39-3.28H65.3z M63.59,23.39
		c-1.04,0.05-2.43,0.43-2.43,1.75c0,1.12,0.77,1.67,1.78,1.67c2.02,0,2.4-1.75,2.36-3.42H63.59z"/>
	<path class="st0" d="M83.21,18.74l-3.19,9.04h-1.94l-2.11-7.44h-0.04l-2.34,7.44h-2l-2.99-9.04h1.85l2.18,7.27h0.04l2.25-7.27h2.21
		l2.03,7.13h0.04l2.25-7.13H83.21z"/>
	<path class="st0" d="M87.83,31.24h-1.75l1.37-3.49l-3.76-9h1.91l2.83,7.13l2.88-7.13h1.84L87.83,31.24z"/>
	<path class="st0" d="M96.13,23.59c-0.13,1.58,0.52,3.22,2.27,3.22c1.33,0,2-0.52,2.2-1.84h1.8c-0.27,2.05-1.86,3.08-4.02,3.08
		c-2.9,0-4.05-2.05-4.05-4.72c0-2.65,1.33-4.86,4.19-4.86c2.7,0.05,3.98,1.76,3.98,4.27v0.85H96.13z M100.7,22.4
		c0.04-1.51-0.65-2.68-2.3-2.68c-1.42,0-2.27,1.21-2.27,2.68H100.7z"/>
	<path class="st0" d="M106.81,27.78h-1.71v-9.04h1.71v1.75h0.04c0.25-1.24,1.4-1.87,2.65-1.87c0.22,0,0.4,0.02,0.59,0.02v1.62
		c-0.23-0.09-0.5-0.09-0.74-0.09c-2.16,0.07-2.54,1.22-2.54,3.13V27.78z"/>
</g>
<g>
	<path class="st0" d="M134.69,14.78h1.71v11.4c0,0.54,0.05,1.08,0.09,1.6h-1.75l-0.05-1.35v-0.09h-0.04
		c-0.61,1.26-1.8,1.71-3.12,1.71c-2.68,0-3.75-2.47-3.75-4.79c0-2.45,1.24-4.79,4.05-4.79c1.15,0,2.29,0.41,2.81,1.49h0.04V14.78z
		 M132.15,26.86c2.07,0,2.56-1.93,2.56-3.62c0-1.64-0.61-3.58-2.56-3.58c-2.05,0-2.56,1.89-2.56,3.58
		C129.6,24.94,130.23,26.86,132.15,26.86z"/>
	<path class="st0" d="M141.21,27.78h-1.71v-9.04h1.71v1.75h0.04c0.25-1.24,1.41-1.87,2.65-1.87c0.22,0,0.4,0.02,0.59,0.02v1.62
		c-0.23-0.09-0.5-0.09-0.74-0.09c-2.16,0.07-2.54,1.22-2.54,3.13V27.78z"/>
	<path class="st0" d="M154.83,23.26c0,2.81-1.53,4.79-4.5,4.79c-2.97,0-4.5-1.98-4.5-4.79s1.53-4.79,4.5-4.79
		C153.3,18.47,154.83,20.45,154.83,23.26z M150.33,26.81c2.03,0,2.7-1.62,2.7-3.55c0-1.93-0.67-3.55-2.7-3.55
		c-2.04,0-2.7,1.62-2.7,3.55C147.63,25.19,148.3,26.81,150.33,26.81z"/>
	<path class="st0" d="M157.37,20.36c-0.02-0.54-0.05-1.08-0.09-1.62h1.75l0.05,1.44h0.04c0.52-1.3,1.66-1.71,3.08-1.71
		c2.54,0,3.8,2.34,3.8,4.79c0,2.32-1.08,4.79-4.34,4.79c-0.74,0-1.93-0.36-2.52-1.3h-0.05v4.48h-1.71V20.36z M161.64,19.72
		c-1.94,0-2.56,1.91-2.56,3.55c0,1.69,0.49,3.55,2.39,3.55c2.09,0,2.72-1.85,2.72-3.55C164.19,21.57,163.69,19.72,161.64,19.72z"/>
	<path class="st0" d="M176.83,23.26c0,2.81-1.53,4.79-4.5,4.79c-2.97,0-4.5-1.98-4.5-4.79s1.53-4.79,4.5-4.79
		C175.3,18.47,176.83,20.45,176.83,23.26z M172.33,26.81c2.03,0,2.7-1.62,2.7-3.55c0-1.93-0.67-3.55-2.7-3.55
		c-2.04,0-2.7,1.62-2.7,3.55C169.63,25.19,170.29,26.81,172.33,26.81z"/>
	<path class="st0" d="M185.5,18.74h1.71v9.04h-1.67v-1.33h-0.04c-0.68,1.13-1.84,1.6-3.1,1.6c-1.89,0-2.97-1.44-2.97-3.26v-6.05
		h1.71v5.35c0,1.57,0.36,2.72,2,2.72c0.7,0,1.66-0.36,2.02-1.3c0.32-0.85,0.34-1.91,0.34-2.12V18.74z"/>
	<path class="st0" d="M190.53,18.74v-1.93l1.71-0.54v2.47l2.09-0.05v1.28l-2.09-0.02v5.83c0,0.65,0.5,0.95,1.12,0.95
		c0.27,0,0.63-0.04,0.9-0.11v1.31c-0.4,0.02-0.77,0.11-1.17,0.11c-0.41,0-0.74-0.02-1.15-0.09c-0.27-0.05-0.72-0.2-1.01-0.59
		c-0.31-0.43-0.4-0.47-0.4-1.67v-5.74l-1.55,0.02v-1.28L190.53,18.74z"/>
</g>
<g>
	<circle class="st1" cx="19.5" cy="29.76" r="13.05"/>
	<circle class="st2" cx="19.5" cy="29.76" r="18.31"/>
</g>
<text transform="matrix(1 0 0 1 10.6683 32.1797)" class="st3 st4 st5">- or -</text>
<rect x="2.64" y="0.52" class="st6" width="36.6" height="3.47"/>
<path class="st0" d="M2.25,32.66l-1.63-1.59l0.21,18.18l18.18-0.21l-0.82-0.8C10.52,46.16,4.48,40.21,2.25,32.66z"/>
<path class="st0" d="M38.71,28.37l0.55-17.2l-18.17-0.58l1.44,1.54C30.42,14.25,36.62,20.47,38.71,28.37z"/>
<g>
	
		<rect x="118.76" y="13.97" transform="matrix(0.74 0.6727 -0.6727 0.74 46.2292 -74.0938)" class="st0" width="0.37" height="17.55"/>
	<circle class="st7" cx="119.03" cy="22.52" r="2.6"/>
</g>
</svg>
